<svg preserveAspectRatio="none" width="100%" height="100%" overflow="visible" style="display: block;" viewBox="0 0 85 85" fill="none" xmlns="http://www.w3.org/2000/svg">
<g id="The Star (Polaris Node)" filter="url(#filter0_d_0_7)">
<path id="Icon" d="M60 35L56.875 28.125L50 25L56.875 21.875L60 15L63.125 21.875L70 25L63.125 28.125L60 35V35M60 70L56.875 63.125L50 60L56.875 56.875L60 50L63.125 56.875L70 60L63.125 63.125L60 70V70M35 62.5L28.75 48.75L15 42.5L28.75 36.25L35 22.5L41.25 36.25L55 42.5L41.25 48.75L35 62.5V62.5" fill="var(--fill-0, #FCD34D)"/>
</g>
<defs>
<filter id="filter0_d_0_7" x="0" y="0" width="85" height="85" filterUnits="userSpaceOnUse" color-interpolation-filters="sRGB">
<feFlood flood-opacity="0" result="BackgroundImageFix"/>
<feColorMatrix in="SourceAlpha" type="matrix" values="0 0 0 0 0 0 0 0 0 0 0 0 0 0 0 0 0 0 127 0" result="hardAlpha"/>
<feOffset/>
<feGaussianBlur stdDeviation="7.5"/>
<feComposite in2="hardAlpha" operator="out"/>
<feColorMatrix type="matrix" values="0 0 0 0 0.988235 0 0 0 0 0.827451 0 0 0 0 0.301961 0 0 0 0.8 0"/>
<feBlend mode="normal" in2="BackgroundImageFix" result="effect1_dropShadow_0_7"/>
<feBlend mode="normal" in="SourceGraphic" in2="effect1_dropShadow_0_7" result="shape"/>
</filter>
</defs>
</svg>
